<svg width="461" height="497" viewBox="0 0 461 497" fill="none" xmlns="http://www.w3.org/2000/svg">
<mask id="mask0_1_281" style="mask-type:alpha" maskUnits="userSpaceOnUse" x="61" y="0" width="310" height="338">
<path d="M363.517 84.5172C368.65 81.2689 370.207 74.4491 366.632 69.5375C347.23 42.8846 320.399 22.4179 289.385 10.7775C254.93 -2.15473 217.194 -3.48609 181.913 6.98569C146.632 17.4575 115.733 39.1599 93.9115 68.7955C72.0903 98.4311 60.5394 134.38 61.0141 171.179C61.4887 207.979 73.9628 243.618 96.5411 272.681C119.119 301.744 150.568 322.642 186.107 332.201C221.647 341.759 259.336 339.455 293.446 325.638C324.15 313.202 350.444 292.05 369.151 264.906C372.599 259.904 370.867 253.126 365.651 250.011L271.121 193.558C265.905 190.443 259.232 192.317 254.723 196.388C251.545 199.257 247.871 201.569 243.852 203.197C236.405 206.214 228.176 206.717 220.417 204.63C212.658 202.543 205.792 197.981 200.863 191.636C195.934 185.291 193.211 177.51 193.107 169.476C193.003 161.442 195.525 153.593 200.289 147.123C205.053 140.653 211.799 135.915 219.502 133.629C227.204 131.343 235.443 131.633 242.965 134.457C247.025 135.981 250.757 138.198 254.008 140.983C258.621 144.936 265.34 146.638 270.474 143.39L363.517 84.5172Z" fill="#D9D9D9"/>
</mask>
<g mask="url(#mask0_1_281)">
<path d="M115.973 50.1706C96.3731 82.3375 68.9335 174.903 115.973 287.829M169.382 15.266C123.323 89.6948 89.5132 201.081 173.302 325.814M218.872 5C143.902 88.1549 121.853 226.746 223.281 333M263.951 10.6463C160.562 94.3146 158.602 248.818 270.321 328.894M302.66 25.5321C188.982 94.8279 188.492 245.225 307.07 312.981M335 48.1174C231.611 90.7214 210.052 231.366 333.04 286.29" stroke="black" stroke-width="13" stroke-linecap="round"/>
</g>
<mask id="path-3-inside-1_1_281" fill="white">
<path d="M365.207 83.4478C369.407 80.7901 370.677 75.2141 367.799 71.1612C348.313 43.7156 321.026 22.6532 289.385 10.7775C254.93 -2.15473 217.194 -3.48609 181.913 6.98569C146.632 17.4575 115.733 39.1599 93.9115 68.7955C72.0903 98.4311 60.5394 134.38 61.0141 171.179C61.4887 207.979 73.9628 243.618 96.5411 272.681C119.119 301.744 150.568 322.642 186.107 332.201C221.647 341.759 259.336 339.455 293.446 325.638C324.77 312.951 351.505 291.191 370.277 263.252C373.049 259.127 371.636 253.585 367.368 251.037L269.404 192.532C265.137 189.984 259.674 191.483 256.17 195.008C252.68 198.52 248.497 201.316 243.852 203.197C236.405 206.214 228.176 206.717 220.417 204.63C212.658 202.543 205.792 197.981 200.863 191.636C195.934 185.291 193.211 177.51 193.107 169.476C193.003 161.442 195.525 153.593 200.289 147.123C205.053 140.653 211.799 135.915 219.502 133.629C227.204 131.343 235.443 131.633 242.965 134.457C247.658 136.218 251.912 138.905 255.491 142.325C259.085 145.759 264.584 147.117 268.784 144.459L365.207 83.4478Z"/>
</mask>
<path d="M365.207 83.4478C369.407 80.7901 370.677 75.2141 367.799 71.1612C348.313 43.7156 321.026 22.6532 289.385 10.7775C254.93 -2.15473 217.194 -3.48609 181.913 6.98569C146.632 17.4575 115.733 39.1599 93.9115 68.7955C72.0903 98.4311 60.5394 134.38 61.0141 171.179C61.4887 207.979 73.9628 243.618 96.5411 272.681C119.119 301.744 150.568 322.642 186.107 332.201C221.647 341.759 259.336 339.455 293.446 325.638C324.77 312.951 351.505 291.191 370.277 263.252C373.049 259.127 371.636 253.585 367.368 251.037L269.404 192.532C265.137 189.984 259.674 191.483 256.17 195.008C252.68 198.52 248.497 201.316 243.852 203.197C236.405 206.214 228.176 206.717 220.417 204.63C212.658 202.543 205.792 197.981 200.863 191.636C195.934 185.291 193.211 177.51 193.107 169.476C193.003 161.442 195.525 153.593 200.289 147.123C205.053 140.653 211.799 135.915 219.502 133.629C227.204 131.343 235.443 131.633 242.965 134.457C247.658 136.218 251.912 138.905 255.491 142.325C259.085 145.759 264.584 147.117 268.784 144.459L365.207 83.4478Z" stroke="black" stroke-width="30" stroke-miterlimit="16" stroke-linecap="round" stroke-linejoin="round" mask="url(#path-3-inside-1_1_281)"/>
<path d="M222.024 163.832V162.104H223.464V156.92H222.024V153.752H222.6V156.344H224.04V162.68H222.6V163.832H222.024ZM211.944 162.68V160.664H216.264V157.784H217.704V156.344H221.16V159.224H222.6V161.24H219.144V159.512H219.72V160.664H222.024V159.8H220.584V156.92H218.28V158.36H216.84V161.24H212.52V162.104H216.552V162.68H211.944ZM213.672 159.8V159.224H215.112V159.8H213.672ZM219.432 164.12V163.544H220.584V162.68H217.704V160.952H218.28V162.104H221.16V164.12H219.432ZM207.624 165.272V163.544H209.064V162.104H210.792V162.68H209.64V164.12H208.2V165.272H207.624ZM213.672 164.12V163.544H215.112V164.12H213.672ZM220.584 184.28V181.4H219.72V182.84H217.704V181.4H216.264V179.96H213.384V177.944H216.264V177.08H214.824V174.2H213.384V168.44H210.504V167H209.064V164.984H210.504V163.544H212.52V164.984H213.96V166.424H214.824V164.984H216.264V163.544H218.28V164.984H219.72V167H216.84V168.44H215.112V167.864H216.264V166.424H219.144V165.56H217.704V164.12H216.84V165.56H215.4V167H213.384V165.56H211.944V164.12H211.08V165.56H209.64V166.424H211.08V167.864H213.96V173.624H215.4V176.504H216.84V178.52H213.96V179.384H216.84V180.824H218.28V182.264H219.144V180.824H221.16V183.704H223.464V181.4H222.6V182.552H222.024V180.824H224.04V184.28H220.584ZM207.624 171.32V167H206.184V165.272H206.76V166.424H208.2V170.744H209.064V168.152H209.64V171.32H207.624ZM203.592 167V166.424H205.032V167H203.592ZM201.864 169.88V168.152H202.44V169.304H203.304V167.864H206.472V168.44H203.88V169.88H201.864ZM206.472 175.64V175.064H207.624V174.2H206.184V172.76H203.304V170.744H206.184V169.88H205.032V169.304H206.76V171.32H203.88V172.184H206.76V173.624H208.2V175.64H206.472ZM209.064 174.2V172.76H207.912V172.184H209.64V173.624H211.944V171.32H210.504V169.304H212.232V169.88H211.08V170.744H212.52V174.2H209.064ZM201.864 172.472V171.032H202.44V172.472H201.864ZM214.824 172.472V171.032H215.4V172.472H214.824ZM217.704 177.08V175.64H216.264V172.184H218.28V173.624H219.72V175.352H219.144V174.2H217.704V172.76H216.84V175.064H218.28V176.504H219.432V177.08H217.704ZM210.504 178.232V176.504H213.384V175.64H209.64V176.792H209.064V175.064H213.96V177.08H211.08V178.232H210.504ZM220.872 175.64V175.064H222.312V175.64H220.872ZM220.584 179.96V177.944H222.024V177.08H220.872V176.504H222.6V178.52H221.16V179.384H223.464V176.792H224.04V179.96H220.584ZM211.944 179.672V178.232H212.52V179.672H211.944ZM217.704 179.96V178.232H218.28V179.384H219.144V178.232H219.72V179.96H217.704ZM220.872 185.72V185.144H223.752V185.72H220.872ZM244.828 151.88V150.44H243.676V149.864H245.404V151.304H246.268V149H243.676V148.424H246.844V151.88H244.828ZM247.708 150.44V148.424H249.436V149H248.284V149.864H252.028V149H250.876V148.424H252.604V150.44H247.708ZM240.508 156.2V154.184H242.236V154.76H241.084V155.624H247.708V154.184H249.148V152.744H250.588V151.88H248.284V153.32H243.388V151.88H242.524V153.032H241.948V151.304H243.964V152.744H247.708V151.304H251.164V153.32H249.724V154.76H248.284V156.2H240.508ZM243.676 154.76V154.184H246.556V154.76H243.676ZM249.148 157.352V155.912H249.724V157.352H249.148ZM242.236 157.64V157.064H243.676V157.64H242.236ZM246.268 158.792V157.064H248.284V158.792H247.708V157.64H246.844V158.792H246.268ZM243.388 161.96V159.08H242.524V160.52H240.508V157.352H241.084V159.944H241.948V158.504H243.964V161.384H246.268V159.944H248.284V161.672H247.708V160.52H246.844V161.96H243.388ZM244.828 160.232V157.352H245.404V160.232H244.828ZM237.628 163.112V161.384H239.068V158.792H239.644V161.96H238.204V163.112H237.628ZM237.916 164.84V164.264H241.948V161.96H241.084V163.112H240.508V161.384H242.524V164.84H237.916ZM243.388 164.552V162.824H245.116V163.4H243.964V164.552H243.388ZM246.268 164.552V163.112H246.844V164.552H246.268ZM243.388 167.72V165.704H244.828V164.552H245.404V166.28H243.964V167.144H245.116V167.72H243.388ZM236.476 172.04V171.464H237.628V170.6H234.748V168.584H236.188V165.704H239.644V168.872H239.068V166.28H236.764V169.16H235.324V170.024H238.204V172.04H236.476ZM242.236 170.6V170.024H243.388V169.16H240.508V165.704H242.524V167.432H241.948V166.28H241.084V168.584H243.964V170.6H242.236ZM237.628 168.872V167.432H238.204V168.872H237.628ZM239.068 172.04V170.024H240.796V170.6H239.644V171.464H243.676V172.04H239.068ZM234.748 176.36V174.344H236.188V173.48H234.748V171.752H235.324V172.904H236.764V174.92H235.324V175.784H237.628V174.344H239.068V172.904H242.524V174.92H240.796V174.344H241.948V173.48H239.644V174.92H238.204V176.36H234.748ZM233.308 174.632V173.192H233.884V174.632H233.308ZM230.428 189.32V187.88H228.988V184.424H231.004V185.864H234.748V185H233.308V182.12H230.428V178.664H232.444V180.104H233.308V177.224H238.204V178.664H239.068V175.784H241.084V177.512H240.508V176.36H239.644V179.24H237.628V177.8H233.884V180.68H231.868V179.24H231.004V181.544H233.884V184.424H235.324V186.44H230.428V185H229.564V187.304H231.004V188.744H231.868V187.304H233.884V188.744H234.748V187.304H236.188V183.56H234.748V181.544H236.188V179.24H235.324V180.392H234.748V178.664H236.764V182.12H235.324V182.984H236.764V187.88H235.324V189.32H233.308V187.88H232.444V189.32H230.428ZM232.156 176.36V175.784H233.596V176.36H232.156ZM237.628 184.712V180.104H239.644V181.832H239.068V180.68H238.204V184.712H237.628ZM231.868 184.712V183.56H229.276V182.984H232.444V184.712H231.868ZM227.548 187.592V186.152H228.124V187.592H227.548ZM227.836 189.32V188.744H229.276V189.32H227.836ZM256.881 161.288V157.832H258.321V154.952H260.337V156.392H261.489V156.968H259.761V155.528H258.897V158.408H257.457V160.712H258.321V159.272H259.761V157.832H261.777V159.56H261.201V158.408H260.337V159.848H258.897V161.288H256.881ZM256.881 156.68V155.24H257.457V156.68H256.881ZM264.081 167.048V164.168H262.641V162.152H264.081V159.848H262.641V157.832H264.369V158.408H263.217V159.272H264.657V162.728H263.217V163.592H264.657V166.472H265.521V165.32H266.097V167.048H264.081ZM265.521 162.44V159.56H266.097V162.44H265.521ZM258.609 162.728V162.152H259.761V160.712H262.929V161.288H260.337V162.728H258.609ZM266.961 165.608V160.712H268.689V161.288H267.537V165.032H268.401V162.152H270.417V165.32H269.841V162.728H268.977V165.608H266.961ZM261.489 167.048V166.472H262.641V165.608H261.201V164.168H260.337V165.608H258.321V164.168H256.881V162.44H257.457V163.592H258.897V165.032H259.761V163.592H261.777V165.032H263.217V167.048H261.489ZM272.721 166.76V164.168H271.857V165.32H271.281V163.592H273.297V166.76H272.721ZM269.841 174.248V172.808H268.401V170.792H270.129V171.368H268.977V172.232H270.417V173.672H271.281V170.792H272.721V169.928H269.841V166.472H271.857V167.912H274.161V165.32H274.737V168.488H271.281V167.048H270.417V169.352H273.297V171.368H271.857V174.248H269.841ZM260.049 174.248V173.672H262.641V172.232H264.081V170.792H266.097V172.232H266.961V169.928H265.521V167.912H266.961V166.472H268.689V167.048H267.537V168.488H266.097V169.352H267.537V172.808H265.521V171.368H264.657V172.808H263.217V174.248H260.049ZM275.889 167.048V166.472H277.329V167.048H275.889ZM262.929 168.488V167.912H264.369V168.488H262.929ZM270.129 175.688V175.112H272.721V173.672H275.601V172.808H274.161V169.352H275.601V167.912H277.617V172.52H277.041V168.488H276.177V169.928H274.737V172.232H276.177V174.248H273.297V175.688H270.129ZM268.401 169.64V168.2H268.977V169.64H268.401ZM278.481 171.08V168.2H279.057V171.08H278.481ZM256.881 185.768V180.872H259.761V180.008H256.881V176.552H258.321V175.112H264.081V173.672H268.977V176.552H271.569V177.128H268.401V174.248H264.657V175.688H258.897V177.128H257.457V179.432H260.337V181.448H257.457V185.192H258.321V182.312H261.201V178.568H259.761V176.552H263.217V177.992H264.081V176.552H265.521V175.4H266.097V177.128H264.657V178.568H262.641V177.128H260.337V177.992H261.777V182.888H258.897V185.768H256.881ZM266.961 176.84V175.4H267.537V176.84H266.961ZM265.521 180.008V177.992H268.689V178.568H266.097V179.432H267.249V180.008H265.521ZM262.641 182.6V180.872H264.081V179.72H264.657V181.448H263.217V182.6H262.641Z" fill="black"/>
<path d="M42.496 467.56C37.2907 467.56 32.5973 466.664 28.416 464.872C24.2347 462.995 20.6933 460.435 17.792 457.192C14.8907 453.949 12.672 450.152 11.136 445.8C9.6 441.363 8.832 436.584 8.832 431.464V428.136C8.832 420.115 9.728 412.733 11.52 405.992C13.3973 399.251 16 393.405 19.328 388.456C22.7413 383.507 26.752 379.667 31.36 376.936C36.0533 374.205 41.2587 372.84 46.976 372.84C49.1947 372.84 51.1573 373.096 52.864 373.608C54.656 374.035 56.2347 374.675 57.6 375.528C59.0507 376.381 60.3733 377.448 61.568 378.728C63.0187 380.093 64.128 381.587 64.896 383.208C65.7493 384.744 66.3467 386.451 66.688 388.328C67.1147 390.12 67.328 392.125 67.328 394.344C67.328 397.245 67.328 400.189 67.328 403.176C67.328 406.163 67.328 409.064 67.328 411.88C66.7307 412.051 65.9627 412.264 65.024 412.52C64.0853 412.691 63.0613 412.776 61.952 412.776C59.0507 412.776 56.832 412.264 55.296 411.24C53.76 410.131 52.992 408.424 52.992 406.12C52.992 402.877 53.0347 400.061 53.12 397.672C53.2907 395.283 53.376 392.936 53.376 390.632C53.376 388.328 53.2053 385.811 52.864 383.08L55.808 388.328C54.1867 387.133 52.6933 386.365 51.328 386.024C49.9627 385.683 48.64 385.512 47.36 385.512C42.9227 385.512 38.8693 387.432 35.2 391.272C31.5307 395.027 28.5867 400.147 26.368 406.632C24.2347 413.117 23.168 420.456 23.168 428.648V431.208C23.168 433.768 23.2107 436.029 23.296 437.992C23.4667 439.869 23.7227 441.832 24.064 443.88C26.1973 446.867 28.8 449.299 31.872 451.176C34.944 453.053 38.784 453.992 43.392 453.992C48.512 453.992 53.0773 452.968 57.088 450.92C61.184 448.872 64.7253 445.843 67.712 441.832H68.48C68.6507 442.344 68.7787 442.856 68.864 443.368C68.9493 443.795 68.992 444.264 68.992 444.776C69.0773 445.288 69.12 445.8 69.12 446.312C69.2053 446.824 69.248 447.293 69.248 447.72C69.248 450.707 68.7787 453.224 67.84 455.272C66.9867 457.235 65.8773 458.899 64.512 460.264C62.976 461.8 61.1413 463.123 59.008 464.232C56.96 465.341 54.5707 466.152 51.84 466.664C49.1093 467.261 45.9947 467.56 42.496 467.56ZM82.126 375.4H138.702C140.494 375.4 141.859 375.912 142.798 376.936C143.737 377.96 144.377 379.155 144.718 380.52C145.145 381.8 145.358 382.952 145.358 383.976C145.358 385.085 145.273 386.024 145.102 386.792C145.017 387.56 144.846 388.285 144.59 388.968H86.35C85.2407 388.968 84.302 388.541 83.534 387.688C82.8513 386.749 82.382 385.597 82.126 384.232C81.87 382.781 81.742 381.331 81.742 379.88C81.742 379.197 81.742 378.472 81.742 377.704C81.8273 376.936 81.9553 376.168 82.126 375.4ZM97.102 416.616H130.126C131.833 416.616 133.198 417.085 134.222 418.024C135.246 418.877 135.971 419.987 136.398 421.352C136.91 422.717 137.166 424.168 137.166 425.704C137.166 426.131 137.166 426.515 137.166 426.856C137.166 427.197 137.123 427.539 137.038 427.88C137.038 428.136 137.038 428.435 137.038 428.776H97.102V416.616ZM102.35 465C100.473 465 98.6807 464.659 96.974 463.976C95.3527 463.208 93.8593 462.227 92.494 461.032C91.214 459.752 90.2327 458.387 89.55 456.936C88.8673 455.485 88.526 454.035 88.526 452.584C88.526 448.147 88.526 443.667 88.526 439.144C88.526 434.621 88.526 430.056 88.526 425.448C88.526 420.84 88.526 416.317 88.526 411.88C88.526 407.357 88.526 402.92 88.526 398.568C88.526 394.216 88.526 389.992 88.526 385.896H100.814L99.278 389.608C100.558 390.632 101.454 391.912 101.966 393.448C102.478 394.899 102.734 396.776 102.734 399.08C102.734 403.347 102.734 407.656 102.734 412.008C102.734 416.36 102.734 420.755 102.734 425.192C102.734 429.629 102.734 434.067 102.734 438.504C102.734 442.856 102.734 447.165 102.734 451.432H135.502C138.318 451.432 140.665 452.072 142.542 453.352C144.419 454.632 145.358 456.808 145.358 459.88C145.358 460.819 145.315 461.757 145.23 462.696C145.145 463.635 145.017 464.403 144.846 465H102.35ZM172.828 465C171.292 465 169.927 464.573 168.732 463.72C167.623 462.867 166.684 461.757 165.916 460.392C165.233 458.941 164.679 457.363 164.252 455.656C163.911 453.949 163.74 452.243 163.74 450.536C163.74 445.587 163.74 440.552 163.74 435.432C163.74 430.312 163.74 425.192 163.74 420.072C163.74 414.867 163.74 409.661 163.74 404.456C163.74 399.251 163.74 394.088 163.74 388.968C163.74 386.152 163.655 383.72 163.484 381.672C163.313 379.539 162.972 377.405 162.46 375.272C163.484 374.931 164.508 374.717 165.532 374.632C166.641 374.461 167.836 374.376 169.116 374.376C171.505 374.376 173.34 374.76 174.62 375.528C175.9 376.211 176.796 377.277 177.308 378.728C177.82 380.093 178.076 381.928 178.076 384.232C178.076 389.523 178.076 394.941 178.076 400.488C178.076 405.949 178.076 411.539 178.076 417.256C178.076 422.973 178.076 428.691 178.076 434.408C178.076 440.04 178.076 445.715 178.076 451.432H211.356C212.636 451.432 213.745 451.731 214.684 452.328C215.623 452.84 216.348 453.693 216.86 454.888C217.372 455.997 217.671 457.405 217.756 459.112C217.927 460.819 217.927 462.781 217.756 465H172.828ZM210.972 437.608C211.399 437.523 211.825 437.437 212.252 437.352C212.764 437.267 213.319 437.224 213.916 437.224C214.513 437.139 215.111 437.096 215.708 437.096C217.5 437.096 218.951 437.309 220.06 437.736C221.255 438.163 222.151 438.803 222.748 439.656C223.345 440.424 223.644 441.533 223.644 442.984C223.644 445.288 223.473 447.592 223.132 449.896C222.791 452.2 222.321 454.547 221.724 456.936C221.212 459.24 220.529 461.459 219.676 463.592C218.908 465.725 218.055 467.773 217.116 469.736C214.897 469.736 213.063 469.565 211.612 469.224C210.161 468.968 209.095 468.499 208.412 467.816C207.815 467.219 207.516 466.451 207.516 465.512C207.601 463.464 207.9 461.16 208.412 458.6C209.009 455.955 209.564 452.925 210.076 449.512C210.673 446.099 210.972 442.131 210.972 437.608ZM275.818 454.888H263.402L265.066 450.792C263.871 449.853 262.975 448.531 262.378 446.824C261.781 445.032 261.482 442.984 261.482 440.68C261.482 436.157 261.482 431.635 261.482 427.112C261.482 422.589 261.482 418.024 261.482 413.416C261.482 408.808 261.482 404.2 261.482 399.592C261.482 394.899 261.482 390.205 261.482 385.512H273.898L272.234 389.608C273.429 390.547 274.325 391.912 274.922 393.704C275.519 395.411 275.818 397.416 275.818 399.72C275.818 404.243 275.818 408.765 275.818 413.288C275.818 417.811 275.818 422.376 275.818 426.984C275.818 431.592 275.818 436.243 275.818 440.936C275.818 445.544 275.818 450.195 275.818 454.888ZM299.37 465H243.306C242.282 465 241.386 464.829 240.618 464.488C239.85 464.061 239.21 463.507 238.698 462.824C238.271 462.056 237.93 461.203 237.674 460.264C237.503 459.24 237.418 458.088 237.418 456.808C237.418 456.125 237.461 455.485 237.546 454.888C237.631 454.205 237.717 453.565 237.802 452.968C237.887 452.371 237.973 451.859 238.058 451.432H287.594C290.751 451.432 293.226 451.859 295.018 452.712C296.81 453.565 298.047 454.717 298.73 456.168C299.498 457.619 299.882 459.283 299.882 461.16C299.882 461.587 299.839 462.013 299.754 462.44C299.754 462.867 299.711 463.293 299.626 463.72C299.541 464.147 299.455 464.573 299.37 465ZM237.93 375.4H294.122C296.511 375.4 298.047 376.211 298.73 377.832C299.498 379.453 299.882 381.501 299.882 383.976C299.882 384.403 299.839 384.829 299.754 385.256C299.754 385.597 299.711 386.024 299.626 386.536C299.626 386.963 299.583 387.389 299.498 387.816C299.413 388.157 299.327 388.541 299.242 388.968H249.962C245.695 388.968 242.538 388.2 240.49 386.664C238.442 385.043 237.418 382.611 237.418 379.368C237.418 378.941 237.418 378.557 237.418 378.216C237.503 377.789 237.546 377.405 237.546 377.064C237.631 376.723 237.674 376.424 237.674 376.168C237.759 375.827 237.845 375.571 237.93 375.4ZM329.784 465.256C329.187 465.427 328.547 465.555 327.864 465.64C327.181 465.811 326.328 465.896 325.304 465.896C323.512 465.896 321.976 465.555 320.696 464.872C319.416 464.189 318.435 463.165 317.752 461.8C317.155 460.349 316.856 458.515 316.856 456.296C316.856 450.749 316.856 445.16 316.856 439.528C316.856 433.896 316.856 428.264 316.856 422.632C316.856 417 316.856 411.368 316.856 405.736C316.856 400.104 316.856 394.515 316.856 388.968C316.856 386.835 316.771 384.531 316.6 382.056C316.429 379.581 316.088 377.235 315.576 375.016C316.515 374.76 317.368 374.589 318.136 374.504C318.904 374.419 319.672 374.376 320.44 374.376C321.208 374.291 321.976 374.248 322.744 374.248C325.816 374.248 328.248 374.589 330.04 375.272C331.832 375.869 333.283 376.936 334.392 378.472C335.501 379.923 336.312 381.971 336.824 384.616C337.592 388.2 338.445 391.784 339.384 395.368C340.408 398.867 341.517 402.323 342.712 405.736C343.992 409.149 345.315 412.605 346.68 416.104C348.131 419.603 349.752 423.101 351.544 426.6C353.336 430.013 355.299 433.512 357.432 437.096C359.651 440.595 361.997 444.221 364.472 447.976L359.608 445.416H366.776L363.832 448.36C363.491 444.776 363.192 441.277 362.936 437.864C362.68 434.451 362.467 431.123 362.296 427.88C362.125 424.637 361.997 421.352 361.912 418.024C361.827 414.696 361.784 411.368 361.784 408.04C361.784 404.627 361.784 401.128 361.784 397.544C361.784 393.619 361.784 389.821 361.784 386.152C361.784 382.397 361.784 378.643 361.784 374.888C362.211 374.632 362.765 374.461 363.448 374.376C364.216 374.291 365.112 374.248 366.136 374.248C368.611 374.248 370.616 374.888 372.152 376.168C373.773 377.448 374.584 379.624 374.584 382.696C374.584 388.328 374.584 394.003 374.584 399.72C374.584 405.352 374.584 411.027 374.584 416.744C374.584 422.461 374.584 428.179 374.584 433.896C374.584 439.613 374.584 445.373 374.584 451.176C374.584 453.565 374.627 455.955 374.712 458.344C374.883 460.733 375.139 463.08 375.48 465.384C374.968 465.555 374.413 465.683 373.816 465.768C373.304 465.939 372.749 466.067 372.152 466.152C371.64 466.237 371.085 466.28 370.488 466.28C368.611 466.28 366.947 466.067 365.496 465.64C364.131 465.213 362.808 464.403 361.528 463.208C358.797 460.563 355.896 457.064 352.824 452.712C349.752 448.275 346.68 443.027 343.608 436.968C340.536 430.909 337.635 424.168 334.904 416.744C332.173 409.235 329.827 401.128 327.864 392.424L331.448 396.136H325.176L327.48 392.296C327.907 396.051 328.248 399.933 328.504 403.944C328.845 407.869 329.059 411.88 329.144 415.976C329.315 419.987 329.443 424.04 329.528 428.136C329.613 432.232 329.656 436.328 329.656 440.424C329.741 444.435 329.784 448.36 329.784 452.2C329.784 454.419 329.784 456.595 329.784 458.728C329.784 460.861 329.784 463.037 329.784 465.256ZM388.358 429.032H424.838C426.971 429.032 428.934 429.245 430.726 429.672C432.518 430.099 434.054 430.824 435.334 431.848L439.174 430.184V435.688V441.832H394.118C392.582 441.832 391.387 441.448 390.534 440.68C389.766 439.827 389.211 438.632 388.87 437.096C388.529 435.475 388.358 433.555 388.358 431.336V429.032ZM406.022 465C405.083 465.256 404.102 465.469 403.078 465.64C402.054 465.811 400.945 465.896 399.75 465.896C398.214 465.896 396.806 465.683 395.526 465.256C394.246 464.829 393.222 464.189 392.454 463.336C391.771 462.483 391.43 461.288 391.43 459.752C391.345 454.632 391.473 449.64 391.814 444.776C392.241 439.912 392.753 435.176 393.35 430.568C394.033 425.96 394.843 421.523 395.782 417.256C396.806 412.989 397.915 408.893 399.11 404.968C400.39 401.043 401.798 397.331 403.334 393.832C404.87 390.248 406.491 386.92 408.198 383.848C409.905 380.691 411.739 377.747 413.702 375.016C414.811 374.76 415.963 374.547 417.158 374.376C418.353 374.205 419.547 374.12 420.742 374.12C424.155 374.12 426.886 374.589 428.934 375.528C431.067 376.467 432.859 378.003 434.31 380.136C435.846 382.184 437.382 384.957 438.918 388.456C440.625 392.125 442.246 396.349 443.782 401.128C445.318 405.821 446.683 410.941 447.878 416.488C449.158 421.949 450.182 427.709 450.95 433.768C451.803 439.827 452.315 446.099 452.486 452.584C452.571 454.632 452.657 456.68 452.742 458.728C452.913 460.776 452.998 462.867 452.998 465C452.23 465.256 451.334 465.469 450.31 465.64C449.371 465.811 448.39 465.896 447.366 465.896C445.489 465.896 443.867 465.64 442.502 465.128C441.137 464.616 440.113 463.763 439.43 462.568C438.747 461.288 438.363 459.581 438.278 457.448C438.107 451.987 437.766 446.568 437.254 441.192C436.827 435.816 436.145 430.525 435.206 425.32C434.353 420.115 433.286 415.037 432.006 410.088C430.811 405.139 429.361 400.403 427.654 395.88C425.947 391.272 423.985 386.877 421.766 382.696L425.734 385.512H419.462L423.558 382.696C421.169 386.792 419.035 391.059 417.158 395.496C415.366 399.848 413.787 404.499 412.422 409.448C411.057 414.312 409.862 419.56 408.838 425.192C407.899 430.824 407.217 436.925 406.79 443.496C406.363 450.067 406.107 457.235 406.022 465Z" fill="black"/>
</svg>
