<svg viewBox="0 0 54 33" fill="none" xmlns="http://www.w3.org/2000/svg">
  <path d="M27 0C19.8 0 15.3 3.6 13.5 10.8C15.9 7.2 18.9 5.85 22.5 6.75C24.5565 7.26316 26.0658 8.80526 27.7421 10.5105C30.2289 13.0274 32.991 15.825 40.5 15.825C47.7 15.825 52.2 12.225 54 5.025C51.6 8.625 48.6 9.975 45 9.075C42.9435 8.56184 41.4342 7.01974 39.7579 5.31447C37.2711 2.79763 34.509 0 27 0ZM13.5 16.2C6.3 16.2 1.8 19.8 0 27C2.4 23.4 5.4 22.05 9 22.95C11.0565 23.4632 12.5658 25.0053 14.2421 26.7105C16.7289 29.2274 19.491 32.025 27 32.025C34.2 32.025 38.7 28.425 40.5 21.225C38.1 24.825 35.1 26.175 31.5 25.275C29.4435 24.7618 27.9342 23.2197 26.2579 21.5145C23.7711 18.9976 21.009 16.2 13.5 16.2Z" fill="#38BDF8"></path>
</svg>
