<svg id="visual" viewBox="0 0 900 600" width="900" height="600" xmlns="http://www.w3.org/2000/svg" xmlns:xlink="http://www.w3.org/1999/xlink" version="1.1"><g stroke-width="1" stroke-linejoin="bevel"><path d="M429 288L462 165L378 222Z" fill="#60af35" stroke="#60af35"></path><path d="M427 104L333 198L378 222Z" fill="#2a7e00" stroke="#2a7e00"></path><path d="M429 288L530 285L462 165Z" fill="#006600" stroke="#006600"></path><path d="M462 165L602 112L462 128Z" fill="#46961e" stroke="#46961e"></path><path d="M427 104L378 222L462 165Z" fill="#003900" stroke="#003900"></path><path d="M378 222L287 261L429 288Z" fill="#002600" stroke="#002600"></path><path d="M462 128L427 104L462 165Z" fill="#004f00" stroke="#004f00"></path><path d="M530 285L601 219L462 165Z" fill="#002600" stroke="#002600"></path><path d="M333 198L287 261L378 222Z" fill="#60af35" stroke="#60af35"></path><path d="M582 269L601 219L530 285Z" fill="#95e360" stroke="#95e360"></path><path d="M462 128L467 0L427 104Z" fill="#000000" stroke="#000000"></path><path d="M427 104L315 103L333 198Z" fill="#7bc94b" stroke="#7bc94b"></path><path d="M333 198L211 224L287 261Z" fill="#2a7e00" stroke="#2a7e00"></path><path d="M284 361L431 405L429 288Z" fill="#003900" stroke="#003900"></path><path d="M429 288L431 405L530 285Z" fill="#95e360" stroke="#95e360"></path><path d="M530 285L603 383L582 269Z" fill="#60af35" stroke="#60af35"></path><path d="M601 219L602 112L462 165Z" fill="#60af35" stroke="#60af35"></path><path d="M287 261L284 361L429 288Z" fill="#004f00" stroke="#004f00"></path><path d="M489 497L502 430L431 405Z" fill="#7bc94b" stroke="#7bc94b"></path><path d="M431 405L502 430L530 285Z" fill="#003900" stroke="#003900"></path><path d="M502 430L603 383L530 285Z" fill="#95e360" stroke="#95e360"></path><path d="M582 269L679 262L601 219Z" fill="#2a7e00" stroke="#2a7e00"></path><path d="M601 219L696 231L602 112Z" fill="#006600" stroke="#006600"></path><path d="M602 112L467 0L462 128Z" fill="#006600" stroke="#006600"></path><path d="M427 104L375 0L315 103Z" fill="#2a7e00" stroke="#2a7e00"></path><path d="M211 224L221 292L287 261Z" fill="#b0fe76" stroke="#b0fe76"></path><path d="M287 261L221 292L284 361Z" fill="#7bc94b" stroke="#7bc94b"></path><path d="M232 108L211 224L333 198Z" fill="#60af35" stroke="#60af35"></path><path d="M467 0L375 0L427 104Z" fill="#b0fe76" stroke="#b0fe76"></path><path d="M315 103L232 108L333 198Z" fill="#006600" stroke="#006600"></path><path d="M603 383L679 262L582 269Z" fill="#2a7e00" stroke="#2a7e00"></path><path d="M307 0L232 108L315 103Z" fill="#006600" stroke="#006600"></path><path d="M679 262L696 231L601 219Z" fill="#46961e" stroke="#46961e"></path><path d="M375 0L307 0L315 103Z" fill="#000000" stroke="#000000"></path><path d="M672 0L596 0L602 112Z" fill="#60af35" stroke="#60af35"></path><path d="M602 112L596 0L467 0Z" fill="#7bc94b" stroke="#7bc94b"></path><path d="M363 499L489 497L431 405Z" fill="#46961e" stroke="#46961e"></path><path d="M502 430L600 472L603 383Z" fill="#b0fe76" stroke="#b0fe76"></path><path d="M311 501L363 499L284 361Z" fill="#b0fe76" stroke="#b0fe76"></path><path d="M284 361L363 499L431 405Z" fill="#7bc94b" stroke="#7bc94b"></path><path d="M489 497L600 472L502 430Z" fill="#46961e" stroke="#46961e"></path><path d="M786 287L762 239L679 262Z" fill="#002600" stroke="#002600"></path><path d="M679 262L762 239L696 231Z" fill="#46961e" stroke="#46961e"></path><path d="M205 439L311 501L284 361Z" fill="#b0fe76" stroke="#b0fe76"></path><path d="M363 499L463 600L489 497Z" fill="#7bc94b" stroke="#7bc94b"></path><path d="M221 292L205 439L284 361Z" fill="#b0fe76" stroke="#b0fe76"></path><path d="M104 320L205 439L221 292Z" fill="#7bc94b" stroke="#7bc94b"></path><path d="M725 410L679 262L603 383Z" fill="#60af35" stroke="#60af35"></path><path d="M720 62L672 0L602 112Z" fill="#b0fe76" stroke="#b0fe76"></path><path d="M720 62L602 112L696 231Z" fill="#60af35" stroke="#60af35"></path><path d="M791 123L720 62L696 231Z" fill="#60af35" stroke="#60af35"></path><path d="M600 472L725 410L603 383Z" fill="#95e360" stroke="#95e360"></path><path d="M725 410L786 287L679 262Z" fill="#003900" stroke="#003900"></path><path d="M762 239L791 123L696 231Z" fill="#004f00" stroke="#004f00"></path><path d="M70 232L104 320L211 224Z" fill="#b0fe76" stroke="#b0fe76"></path><path d="M211 224L104 320L221 292Z" fill="#004f00" stroke="#004f00"></path><path d="M307 0L169 0L232 108Z" fill="#002600" stroke="#002600"></path><path d="M88 84L70 232L211 224Z" fill="#000000" stroke="#000000"></path><path d="M900 195L791 123L762 239Z" fill="#60af35" stroke="#60af35"></path><path d="M720 62L832 0L672 0Z" fill="#7bc94b" stroke="#7bc94b"></path><path d="M88 84L211 224L232 108Z" fill="#b0fe76" stroke="#b0fe76"></path><path d="M365 600L463 600L363 499Z" fill="#60af35" stroke="#60af35"></path><path d="M489 497L586 600L600 472Z" fill="#2a7e00" stroke="#2a7e00"></path><path d="M600 472L724 507L725 410Z" fill="#003900" stroke="#003900"></path><path d="M365 600L363 499L311 501Z" fill="#95e360" stroke="#95e360"></path><path d="M72 511L225 535L205 439Z" fill="#7bc94b" stroke="#7bc94b"></path><path d="M205 439L225 535L311 501Z" fill="#60af35" stroke="#60af35"></path><path d="M169 0L88 84L232 108Z" fill="#7bc94b" stroke="#7bc94b"></path><path d="M295 600L365 600L311 501Z" fill="#003900" stroke="#003900"></path><path d="M0 427L98 414L104 320Z" fill="#000000" stroke="#000000"></path><path d="M104 320L98 414L205 439Z" fill="#003900" stroke="#003900"></path><path d="M586 600L724 507L600 472Z" fill="#002600" stroke="#002600"></path><path d="M725 410L833 401L786 287Z" fill="#46961e" stroke="#46961e"></path><path d="M463 600L586 600L489 497Z" fill="#95e360" stroke="#95e360"></path><path d="M225 535L295 600L311 501Z" fill="#000000" stroke="#000000"></path><path d="M169 0L77 0L88 84Z" fill="#60af35" stroke="#60af35"></path><path d="M0 110L0 232L70 232Z" fill="#000000" stroke="#000000"></path><path d="M807 498L833 401L725 410Z" fill="#60af35" stroke="#60af35"></path><path d="M786 287L900 195L762 239Z" fill="#60af35" stroke="#60af35"></path><path d="M0 110L70 232L88 84Z" fill="#60af35" stroke="#60af35"></path><path d="M70 232L0 271L104 320Z" fill="#002600" stroke="#002600"></path><path d="M0 232L0 271L70 232Z" fill="#2a7e00" stroke="#2a7e00"></path><path d="M900 72L832 0L791 123Z" fill="#46961e" stroke="#46961e"></path><path d="M791 123L832 0L720 62Z" fill="#003900" stroke="#003900"></path><path d="M724 507L807 498L725 410Z" fill="#002600" stroke="#002600"></path><path d="M792 600L807 498L724 507Z" fill="#003900" stroke="#003900"></path><path d="M0 0L0 110L88 84Z" fill="#003900" stroke="#003900"></path><path d="M72 511L177 600L225 535Z" fill="#b0fe76" stroke="#b0fe76"></path><path d="M225 535L177 600L295 600Z" fill="#002600" stroke="#002600"></path><path d="M72 511L205 439L98 414Z" fill="#002600" stroke="#002600"></path><path d="M900 320L786 287L833 401Z" fill="#002600" stroke="#002600"></path><path d="M900 320L900 195L786 287Z" fill="#95e360" stroke="#95e360"></path><path d="M586 600L710 600L724 507Z" fill="#2a7e00" stroke="#2a7e00"></path><path d="M0 427L72 511L98 414Z" fill="#003900" stroke="#003900"></path><path d="M900 382L900 320L833 401Z" fill="#7bc94b" stroke="#7bc94b"></path><path d="M900 195L900 72L791 123Z" fill="#b0fe76" stroke="#b0fe76"></path><path d="M900 529L900 382L833 401Z" fill="#000000" stroke="#000000"></path><path d="M0 271L0 427L104 320Z" fill="#95e360" stroke="#95e360"></path><path d="M77 0L0 0L88 84Z" fill="#46961e" stroke="#46961e"></path><path d="M900 72L900 0L832 0Z" fill="#006600" stroke="#006600"></path><path d="M72 511L94 600L177 600Z" fill="#004f00" stroke="#004f00"></path><path d="M0 600L94 600L72 511Z" fill="#004f00" stroke="#004f00"></path><path d="M710 600L792 600L724 507Z" fill="#002600" stroke="#002600"></path><path d="M807 498L900 529L833 401Z" fill="#46961e" stroke="#46961e"></path><path d="M0 427L0 504L72 511Z" fill="#46961e" stroke="#46961e"></path><path d="M792 600L900 529L807 498Z" fill="#000000" stroke="#000000"></path><path d="M0 504L0 600L72 511Z" fill="#000000" stroke="#000000"></path><path d="M792 600L900 600L900 529Z" fill="#004f00" stroke="#004f00"></path></g></svg>