<svg id="visual" viewBox="0 0 960 540" width="960" height="540" xmlns="http://www.w3.org/2000/svg" xmlns:xlink="http://www.w3.org/1999/xlink" version="1.1"><rect x="0" y="0" width="960" height="540" fill="#000000"></rect><path d="M0 100L87 100L87 98L175 98L175 99L262 99L262 109L349 109L349 98L436 98L436 107L524 107L524 107L611 107L611 81L698 81L698 100L785 100L785 82L873 82L873 99L960 99L960 81L960 541L960 541L873 541L873 541L785 541L785 541L698 541L698 541L611 541L611 541L524 541L524 541L436 541L436 541L349 541L349 541L262 541L262 541L175 541L175 541L87 541L87 541L0 541Z" fill="#cbffa3"></path><path d="M0 172L87 172L87 167L175 167L175 175L262 175L262 157L349 157L349 151L436 151L436 166L524 166L524 172L611 172L611 156L698 156L698 162L785 162L785 181L873 181L873 174L960 174L960 167L960 541L960 541L873 541L873 541L785 541L785 541L698 541L698 541L611 541L611 541L524 541L524 541L436 541L436 541L349 541L349 541L262 541L262 541L175 541L175 541L87 541L87 541L0 541Z" fill="#c1ff91"></path><path d="M0 231L87 231L87 252L175 252L175 224L262 224L262 236L349 236L349 234L436 234L436 252L524 252L524 228L611 228L611 231L698 231L698 249L785 249L785 234L873 234L873 233L960 233L960 251L960 541L960 541L873 541L873 541L785 541L785 541L698 541L698 541L611 541L611 541L524 541L524 541L436 541L436 541L349 541L349 541L262 541L262 541L175 541L175 541L87 541L87 541L0 541Z" fill="#b6fe7f"></path><path d="M0 321L87 321L87 300L175 300L175 300L262 300L262 304L349 304L349 307L436 307L436 307L524 307L524 315L611 315L611 321L698 321L698 305L785 305L785 315L873 315L873 303L960 303L960 319L960 541L960 541L873 541L873 541L785 541L785 541L698 541L698 541L611 541L611 541L524 541L524 541L436 541L436 541L349 541L349 541L262 541L262 541L175 541L175 541L87 541L87 541L0 541Z" fill="#aaf970"></path><path d="M0 381L87 381L87 386L175 386L175 375L262 375L262 393L349 393L349 391L436 391L436 386L524 386L524 387L611 387L611 400L698 400L698 381L785 381L785 381L873 381L873 384L960 384L960 390L960 541L960 541L873 541L873 541L785 541L785 541L698 541L698 541L611 541L611 541L524 541L524 541L436 541L436 541L349 541L349 541L262 541L262 541L175 541L175 541L87 541L87 541L0 541Z" fill="#9df063"></path><path d="M0 464L87 464L87 447L175 447L175 467L262 467L262 458L349 458L349 448L436 448L436 466L524 466L524 446L611 446L611 468L698 468L698 469L785 469L785 450L873 450L873 460L960 460L960 469L960 541L960 541L873 541L873 541L785 541L785 541L698 541L698 541L611 541L611 541L524 541L524 541L436 541L436 541L349 541L349 541L262 541L262 541L175 541L175 541L87 541L87 541L0 541Z" fill="#91e757"></path></svg>