<svg id="visual" viewBox="0 0 540 960" width="540" height="960" xmlns="http://www.w3.org/2000/svg" xmlns:xlink="http://www.w3.org/1999/xlink" version="1.1"><rect x="0" y="0" width="540" height="960" fill="#000000"></rect><path d="M0 331L60 331L60 321L120 321L120 242L180 242L180 232L240 232L240 314L300 314L300 283L360 283L360 269L420 269L420 294L480 294L480 251L540 251L540 324L540 961L540 961L480 961L480 961L420 961L420 961L360 961L360 961L300 961L300 961L240 961L240 961L180 961L180 961L120 961L120 961L60 961L60 961L0 961Z" fill="#cbffa3"></path><path d="M0 366L60 366L60 381L120 381L120 374L180 374L180 376L240 376L240 383L300 383L300 364L360 364L360 426L420 426L420 391L480 391L480 397L540 397L540 371L540 961L540 961L480 961L480 961L420 961L420 961L360 961L360 961L300 961L300 961L240 961L240 961L180 961L180 961L120 961L120 961L60 961L60 961L0 961Z" fill="#beff8d"></path><path d="M0 546L60 546L60 570L120 570L120 555L180 555L180 520L240 520L240 573L300 573L300 555L360 555L360 556L420 556L420 566L480 566L480 524L540 524L540 535L540 961L540 961L480 961L480 961L420 961L420 961L360 961L360 961L300 961L300 961L240 961L240 961L180 961L180 961L120 961L120 961L60 961L60 961L0 961Z" fill="#b0fe76"></path><path d="M0 659L60 659L60 660L120 660L120 699L180 699L180 681L240 681L240 659L300 659L300 705L360 705L360 670L420 670L420 684L480 684L480 704L540 704L540 640L540 961L540 961L480 961L480 961L420 961L420 961L360 961L360 961L300 961L300 961L240 961L240 961L180 961L180 961L120 961L120 961L60 961L60 961L0 961Z" fill="#a1f267"></path><path d="M0 768L60 768L60 818L120 818L120 819L180 819L180 798L240 798L240 780L300 780L300 797L360 797L360 823L420 823L420 794L480 794L480 814L540 814L540 806L540 961L540 961L480 961L480 961L420 961L420 961L360 961L360 961L300 961L300 961L240 961L240 961L180 961L180 961L120 961L120 961L60 961L60 961L0 961Z" fill="#91e757"></path></svg>