<svg id="visual" viewBox="0 0 540 960" width="540" height="960" xmlns="http://www.w3.org/2000/svg" xmlns:xlink="http://www.w3.org/1999/xlink" version="1.1"><path d="M77 0L84 22.8C91 45.7 105 91.3 112.2 137C119.3 182.7 119.7 228.3 112.2 274C104.7 319.7 89.3 365.3 88 411.2C86.7 457 99.3 503 99.7 548.8C100 594.7 88 640.3 82.8 686C77.7 731.7 79.3 777.3 84.7 823C90 868.7 99 914.3 103.5 937.2L108 960L0 960L0 937.2C0 914.3 0 868.7 0 823C0 777.3 0 731.7 0 686C0 640.3 0 594.7 0 548.8C0 503 0 457 0 411.2C0 365.3 0 319.7 0 274C0 228.3 0 182.7 0 137C0 91.3 0 45.7 0 22.8L0 0Z" fill="#cbffa3"></path><path d="M95 0L91 22.8C87 45.7 79 91.3 74.2 137C69.3 182.7 67.7 228.3 64.8 274C62 319.7 58 365.3 63 411.2C68 457 82 503 88.3 548.8C94.7 594.7 93.3 640.3 92.3 686C91.3 731.7 90.7 777.3 86.7 823C82.7 868.7 75.3 914.3 71.7 937.2L68 960L0 960L0 937.2C0 914.3 0 868.7 0 823C0 777.3 0 731.7 0 686C0 640.3 0 594.7 0 548.8C0 503 0 457 0 411.2C0 365.3 0 319.7 0 274C0 228.3 0 182.7 0 137C0 91.3 0 45.7 0 22.8L0 0Z" fill="#b0fe76"></path><path d="M21 0L26.3 22.8C31.7 45.7 42.3 91.3 43.5 137C44.7 182.7 36.3 228.3 33.3 274C30.3 319.7 32.7 365.3 37.8 411.2C43 457 51 503 50.7 548.8C50.3 594.7 41.7 640.3 40.3 686C39 731.7 45 777.3 47.2 823C49.3 868.7 47.7 914.3 46.8 937.2L46 960L0 960L0 937.2C0 914.3 0 868.7 0 823C0 777.3 0 731.7 0 686C0 640.3 0 594.7 0 548.8C0 503 0 457 0 411.2C0 365.3 0 319.7 0 274C0 228.3 0 182.7 0 137C0 91.3 0 45.7 0 22.8L0 0Z" fill="#91e757"></path></svg>