<svg id="visual" viewBox="0 0 960 540" width="960" height="540" xmlns="http://www.w3.org/2000/svg" xmlns:xlink="http://www.w3.org/1999/xlink" version="1.1"><path d="M451 540L471 527.2C491 514.3 531 488.7 551.2 463C571.3 437.3 571.7 411.7 550.5 386C529.3 360.3 486.7 334.7 480.7 308.8C474.7 283 505.3 257 508.2 231.2C511 205.3 486 179.7 484.8 154C483.7 128.3 506.3 102.7 529.8 77C553.3 51.3 577.7 25.7 589.8 12.8L602 0L960 0L960 12.8C960 25.7 960 51.3 960 77C960 102.7 960 128.3 960 154C960 179.7 960 205.3 960 231.2C960 257 960 283 960 308.8C960 334.7 960 360.3 960 386C960 411.7 960 437.3 960 463C960 488.7 960 514.3 960 527.2L960 540Z" fill="#cbffa3"></path><path d="M588 540L578.8 527.2C569.7 514.3 551.3 488.7 556.2 463C561 437.3 589 411.7 613.3 386C637.7 360.3 658.3 334.7 654.3 308.8C650.3 283 621.7 257 599.7 231.2C577.7 205.3 562.3 179.7 584.5 154C606.7 128.3 666.3 102.7 692.7 77C719 51.3 712 25.7 708.5 12.8L705 0L960 0L960 12.8C960 25.7 960 51.3 960 77C960 102.7 960 128.3 960 154C960 179.7 960 205.3 960 231.2C960 257 960 283 960 308.8C960 334.7 960 360.3 960 386C960 411.7 960 437.3 960 463C960 488.7 960 514.3 960 527.2L960 540Z" fill="#b9fe86"></path><path d="M671 540L686.5 527.2C702 514.3 733 488.7 732.3 463C731.7 437.3 699.3 411.7 694 386C688.7 360.3 710.3 334.7 733.8 308.8C757.3 283 782.7 257 775.5 231.2C768.3 205.3 728.7 179.7 707.3 154C686 128.3 683 102.7 678.8 77C674.7 51.3 669.3 25.7 666.7 12.8L664 0L960 0L960 12.8C960 25.7 960 51.3 960 77C960 102.7 960 128.3 960 154C960 179.7 960 205.3 960 231.2C960 257 960 283 960 308.8C960 334.7 960 360.3 960 386C960 411.7 960 437.3 960 463C960 488.7 960 514.3 960 527.2L960 540Z" fill="#a6f66c"></path><path d="M867 540L869 527.2C871 514.3 875 488.7 879.3 463C883.7 437.3 888.3 411.7 870 386C851.7 360.3 810.3 334.7 805.7 308.8C801 283 833 257 840.7 231.2C848.3 205.3 831.7 179.7 835.7 154C839.7 128.3 864.3 102.7 869 77C873.7 51.3 858.3 25.7 850.7 12.8L843 0L960 0L960 12.8C960 25.7 960 51.3 960 77C960 102.7 960 128.3 960 154C960 179.7 960 205.3 960 231.2C960 257 960 283 960 308.8C960 334.7 960 360.3 960 386C960 411.7 960 437.3 960 463C960 488.7 960 514.3 960 527.2L960 540Z" fill="#91e757"></path></svg>