<svg id="visual" viewBox="0 0 540 960" width="540" height="960" xmlns="http://www.w3.org/2000/svg" xmlns:xlink="http://www.w3.org/1999/xlink" version="1.1"><path d="M454 960L451.8 937.2C449.7 914.3 445.3 868.7 440 823C434.7 777.3 428.3 731.7 429.3 686C430.3 640.3 438.7 594.7 442.2 548.8C445.7 503 444.3 457 438.2 411.2C432 365.3 421 319.7 421.8 274C422.7 228.3 435.3 182.7 444.3 137C453.3 91.3 458.7 45.7 461.3 22.8L464 0L540 0L540 22.8C540 45.7 540 91.3 540 137C540 182.7 540 228.3 540 274C540 319.7 540 365.3 540 411.2C540 457 540 503 540 548.8C540 594.7 540 640.3 540 686C540 731.7 540 777.3 540 823C540 868.7 540 914.3 540 937.2L540 960Z" fill="#cbffa3"></path><path d="M470 960L466.5 937.2C463 914.3 456 868.7 459.3 823C462.7 777.3 476.3 731.7 476.3 686C476.3 640.3 462.7 594.7 459.7 548.8C456.7 503 464.3 457 470 411.2C475.7 365.3 479.3 319.7 477.2 274C475 228.3 467 182.7 467.7 137C468.3 91.3 477.7 45.7 482.3 22.8L487 0L540 0L540 22.8C540 45.7 540 91.3 540 137C540 182.7 540 228.3 540 274C540 319.7 540 365.3 540 411.2C540 457 540 503 540 548.8C540 594.7 540 640.3 540 686C540 731.7 540 777.3 540 823C540 868.7 540 914.3 540 937.2L540 960Z" fill="#b0fe76"></path><path d="M519 960L518.3 937.2C517.7 914.3 516.3 868.7 512.3 823C508.3 777.3 501.7 731.7 502.2 686C502.7 640.3 510.3 594.7 508.5 548.8C506.7 503 495.3 457 490.5 411.2C485.7 365.3 487.3 319.7 492 274C496.7 228.3 504.3 182.7 507 137C509.7 91.3 507.3 45.7 506.2 22.8L505 0L540 0L540 22.8C540 45.7 540 91.3 540 137C540 182.7 540 228.3 540 274C540 319.7 540 365.3 540 411.2C540 457 540 503 540 548.8C540 594.7 540 640.3 540 686C540 731.7 540 777.3 540 823C540 868.7 540 914.3 540 937.2L540 960Z" fill="#91e757"></path></svg>