<svg id="visual" viewBox="0 0 960 540" width="960" height="540" xmlns="http://www.w3.org/2000/svg" xmlns:xlink="http://www.w3.org/1999/xlink" version="1.1"><path d="M338 0L343.5 12.8C349 25.7 360 51.3 385.5 77C411 102.7 451 128.3 472.7 154C494.3 179.7 497.7 205.3 471.3 231.2C445 257 389 283 384.3 308.8C379.7 334.7 426.3 360.3 451.3 386C476.3 411.7 479.7 437.3 490.8 463C502 488.7 521 514.3 530.5 527.2L540 540L0 540L0 527.2C0 514.3 0 488.7 0 463C0 437.3 0 411.7 0 386C0 360.3 0 334.7 0 308.8C0 283 0 257 0 231.2C0 205.3 0 179.7 0 154C0 128.3 0 102.7 0 77C0 51.3 0 25.7 0 12.8L0 0Z" fill="#cbffa3"></path><path d="M379 0L357.8 12.8C336.7 25.7 294.3 51.3 279.5 77C264.7 102.7 277.3 128.3 277.3 154C277.3 179.7 264.7 205.3 286.7 231.2C308.7 257 365.3 283 388.2 308.8C411 334.7 400 360.3 376.2 386C352.3 411.7 315.7 437.3 315.3 463C315 488.7 351 514.3 369 527.2L387 540L0 540L0 527.2C0 514.3 0 488.7 0 463C0 437.3 0 411.7 0 386C0 360.3 0 334.7 0 308.8C0 283 0 257 0 231.2C0 205.3 0 179.7 0 154C0 128.3 0 102.7 0 77C0 51.3 0 25.7 0 12.8L0 0Z" fill="#b9fe86"></path><path d="M310 0L299.2 12.8C288.3 25.7 266.7 51.3 253 77C239.3 102.7 233.7 128.3 235.7 154C237.7 179.7 247.3 205.3 251 231.2C254.7 257 252.3 283 249.8 308.8C247.3 334.7 244.7 360.3 234.8 386C225 411.7 208 437.3 214 463C220 488.7 249 514.3 263.5 527.2L278 540L0 540L0 527.2C0 514.3 0 488.7 0 463C0 437.3 0 411.7 0 386C0 360.3 0 334.7 0 308.8C0 283 0 257 0 231.2C0 205.3 0 179.7 0 154C0 128.3 0 102.7 0 77C0 51.3 0 25.7 0 12.8L0 0Z" fill="#a6f66c"></path><path d="M133 0L131.7 12.8C130.3 25.7 127.7 51.3 130.2 77C132.7 102.7 140.3 128.3 137.5 154C134.7 179.7 121.3 205.3 119.5 231.2C117.7 257 127.3 283 127.5 308.8C127.7 334.7 118.3 360.3 127.3 386C136.3 411.7 163.7 437.3 159.8 463C156 488.7 121 514.3 103.5 527.2L86 540L0 540L0 527.2C0 514.3 0 488.7 0 463C0 437.3 0 411.7 0 386C0 360.3 0 334.7 0 308.8C0 283 0 257 0 231.2C0 205.3 0 179.7 0 154C0 128.3 0 102.7 0 77C0 51.3 0 25.7 0 12.8L0 0Z" fill="#91e757"></path></svg>