<svg id="visual" viewBox="0 0 960 540" width="960" height="540" xmlns="http://www.w3.org/2000/svg" xmlns:xlink="http://www.w3.org/1999/xlink" version="1.1"><path d="M225 0L225.8 12.8C226.7 25.7 228.3 51.3 216.3 77C204.3 102.7 178.7 128.3 166 154C153.3 179.7 153.7 205.3 159.8 231.2C166 257 178 283 185 308.8C192 334.7 194 360.3 187.7 386C181.3 411.7 166.7 437.3 170.5 463C174.3 488.7 196.7 514.3 207.8 527.2L219 540L0 540L0 527.2C0 514.3 0 488.7 0 463C0 437.3 0 411.7 0 386C0 360.3 0 334.7 0 308.8C0 283 0 257 0 231.2C0 205.3 0 179.7 0 154C0 128.3 0 102.7 0 77C0 51.3 0 25.7 0 12.8L0 0Z" fill="#cbffa3"></path><path d="M111 0L112.2 12.8C113.3 25.7 115.7 51.3 116.3 77C117 102.7 116 128.3 117.3 154C118.7 179.7 122.3 205.3 122.5 231.2C122.7 257 119.3 283 114.5 308.8C109.7 334.7 103.3 360.3 98.2 386C93 411.7 89 437.3 92.8 463C96.7 488.7 108.3 514.3 114.2 527.2L120 540L0 540L0 527.2C0 514.3 0 488.7 0 463C0 437.3 0 411.7 0 386C0 360.3 0 334.7 0 308.8C0 283 0 257 0 231.2C0 205.3 0 179.7 0 154C0 128.3 0 102.7 0 77C0 51.3 0 25.7 0 12.8L0 0Z" fill="#b0fe76"></path><path d="M90 0L87 12.8C84 25.7 78 51.3 77 77C76 102.7 80 128.3 76 154C72 179.7 60 205.3 56 231.2C52 257 56 283 56.5 308.8C57 334.7 54 360.3 54.8 386C55.7 411.7 60.3 437.3 66 463C71.7 488.7 78.3 514.3 81.7 527.2L85 540L0 540L0 527.2C0 514.3 0 488.7 0 463C0 437.3 0 411.7 0 386C0 360.3 0 334.7 0 308.8C0 283 0 257 0 231.2C0 205.3 0 179.7 0 154C0 128.3 0 102.7 0 77C0 51.3 0 25.7 0 12.8L0 0Z" fill="#91e757"></path></svg>