<svg id="visual" viewBox="0 0 960 540" width="960" height="540" xmlns="http://www.w3.org/2000/svg" xmlns:xlink="http://www.w3.org/1999/xlink" version="1.1"><path d="M765 540L775.7 527.2C786.3 514.3 807.7 488.7 801.5 463C795.3 437.3 761.7 411.7 749.7 386C737.7 360.3 747.3 334.7 750.5 308.8C753.7 283 750.3 257 755.7 231.2C761 205.3 775 179.7 772.7 154C770.3 128.3 751.7 102.7 751.3 77C751 51.3 769 25.7 778 12.8L787 0L960 0L960 12.8C960 25.7 960 51.3 960 77C960 102.7 960 128.3 960 154C960 179.7 960 205.3 960 231.2C960 257 960 283 960 308.8C960 334.7 960 360.3 960 386C960 411.7 960 437.3 960 463C960 488.7 960 514.3 960 527.2L960 540Z" fill="#cbffa3"></path><path d="M815 540L817.3 527.2C819.7 514.3 824.3 488.7 830.8 463C837.3 437.3 845.7 411.7 850.2 386C854.7 360.3 855.3 334.7 859.3 308.8C863.3 283 870.7 257 863.8 231.2C857 205.3 836 179.7 823.3 154C810.7 128.3 806.3 102.7 807.2 77C808 51.3 814 25.7 817 12.8L820 0L960 0L960 12.8C960 25.7 960 51.3 960 77C960 102.7 960 128.3 960 154C960 179.7 960 205.3 960 231.2C960 257 960 283 960 308.8C960 334.7 960 360.3 960 386C960 411.7 960 437.3 960 463C960 488.7 960 514.3 960 527.2L960 540Z" fill="#b0fe76"></path><path d="M922 540L920.7 527.2C919.3 514.3 916.7 488.7 911.2 463C905.7 437.3 897.3 411.7 891.8 386C886.3 360.3 883.7 334.7 882.7 308.8C881.7 283 882.3 257 878.3 231.2C874.3 205.3 865.7 179.7 871.2 154C876.7 128.3 896.3 102.7 903.3 77C910.3 51.3 904.7 25.7 901.8 12.8L899 0L960 0L960 12.8C960 25.7 960 51.3 960 77C960 102.7 960 128.3 960 154C960 179.7 960 205.3 960 231.2C960 257 960 283 960 308.8C960 334.7 960 360.3 960 386C960 411.7 960 437.3 960 463C960 488.7 960 514.3 960 527.2L960 540Z" fill="#91e757"></path></svg>