<svg id="visual" viewBox="0 0 540 960" width="540" height="960" xmlns="http://www.w3.org/2000/svg" xmlns:xlink="http://www.w3.org/1999/xlink" version="1.1"><path d="M234 0L229.5 22.8C225 45.7 216 91.3 206.7 137C197.3 182.7 187.7 228.3 189 274C190.3 319.7 202.7 365.3 213.2 411.2C223.7 457 232.3 503 228.7 548.8C225 594.7 209 640.3 209.8 686C210.7 731.7 228.3 777.3 237.5 823C246.7 868.7 247.3 914.3 247.7 937.2L248 960L0 960L0 937.2C0 914.3 0 868.7 0 823C0 777.3 0 731.7 0 686C0 640.3 0 594.7 0 548.8C0 503 0 457 0 411.2C0 365.3 0 319.7 0 274C0 228.3 0 182.7 0 137C0 91.3 0 45.7 0 22.8L0 0Z" fill="#cbffa3"></path><path d="M184 0L184.5 22.8C185 45.7 186 91.3 184.2 137C182.3 182.7 177.7 228.3 173.7 274C169.7 319.7 166.3 365.3 170.3 411.2C174.3 457 185.7 503 191 548.8C196.3 594.7 195.7 640.3 199.8 686C204 731.7 213 777.3 206.3 823C199.7 868.7 177.3 914.3 166.2 937.2L155 960L0 960L0 937.2C0 914.3 0 868.7 0 823C0 777.3 0 731.7 0 686C0 640.3 0 594.7 0 548.8C0 503 0 457 0 411.2C0 365.3 0 319.7 0 274C0 228.3 0 182.7 0 137C0 91.3 0 45.7 0 22.8L0 0Z" fill="#beff8d"></path><path d="M140 0L134.2 22.8C128.3 45.7 116.7 91.3 110.8 137C105 182.7 105 228.3 110 274C115 319.7 125 365.3 130.5 411.2C136 457 137 503 138 548.8C139 594.7 140 640.3 144.7 686C149.3 731.7 157.7 777.3 151.2 823C144.7 868.7 123.3 914.3 112.7 937.2L102 960L0 960L0 937.2C0 914.3 0 868.7 0 823C0 777.3 0 731.7 0 686C0 640.3 0 594.7 0 548.8C0 503 0 457 0 411.2C0 365.3 0 319.7 0 274C0 228.3 0 182.7 0 137C0 91.3 0 45.7 0 22.8L0 0Z" fill="#b0fe76"></path><path d="M124 0L124.3 22.8C124.7 45.7 125.3 91.3 115.7 137C106 182.7 86 228.3 77.3 274C68.7 319.7 71.3 365.3 71.2 411.2C71 457 68 503 72 548.8C76 594.7 87 640.3 95.3 686C103.7 731.7 109.3 777.3 107.8 823C106.3 868.7 97.7 914.3 93.3 937.2L89 960L0 960L0 937.2C0 914.3 0 868.7 0 823C0 777.3 0 731.7 0 686C0 640.3 0 594.7 0 548.8C0 503 0 457 0 411.2C0 365.3 0 319.7 0 274C0 228.3 0 182.7 0 137C0 91.3 0 45.7 0 22.8L0 0Z" fill="#a1f267"></path><path d="M43 0L43.2 22.8C43.3 45.7 43.7 91.3 47.2 137C50.7 182.7 57.3 228.3 61.2 274C65 319.7 66 365.3 63.2 411.2C60.3 457 53.7 503 47.5 548.8C41.3 594.7 35.7 640.3 41.2 686C46.7 731.7 63.3 777.3 65.2 823C67 868.7 54 914.3 47.5 937.2L41 960L0 960L0 937.2C0 914.3 0 868.7 0 823C0 777.3 0 731.7 0 686C0 640.3 0 594.7 0 548.8C0 503 0 457 0 411.2C0 365.3 0 319.7 0 274C0 228.3 0 182.7 0 137C0 91.3 0 45.7 0 22.8L0 0Z" fill="#91e757"></path></svg>