<svg id="visual" viewBox="0 0 540 960" width="540" height="960" xmlns="http://www.w3.org/2000/svg" xmlns:xlink="http://www.w3.org/1999/xlink" version="1.1"><path d="M344 960L335.7 937.2C327.3 914.3 310.7 868.7 305 823C299.3 777.3 304.7 731.7 313.5 686C322.3 640.3 334.7 594.7 339.5 548.8C344.3 503 341.7 457 334.7 411.2C327.7 365.3 316.3 319.7 308.8 274C301.3 228.3 297.7 182.7 299.5 137C301.3 91.3 308.7 45.7 312.3 22.8L316 0L540 0L540 22.8C540 45.7 540 91.3 540 137C540 182.7 540 228.3 540 274C540 319.7 540 365.3 540 411.2C540 457 540 503 540 548.8C540 594.7 540 640.3 540 686C540 731.7 540 777.3 540 823C540 868.7 540 914.3 540 937.2L540 960Z" fill="#cbffa3"></path><path d="M357 960L363.7 937.2C370.3 914.3 383.7 868.7 392.7 823C401.7 777.3 406.3 731.7 398.7 686C391 640.3 371 594.7 360.8 548.8C350.7 503 350.3 457 354.3 411.2C358.3 365.3 366.7 319.7 366.5 274C366.3 228.3 357.7 182.7 350.8 137C344 91.3 339 45.7 336.5 22.8L334 0L540 0L540 22.8C540 45.7 540 91.3 540 137C540 182.7 540 228.3 540 274C540 319.7 540 365.3 540 411.2C540 457 540 503 540 548.8C540 594.7 540 640.3 540 686C540 731.7 540 777.3 540 823C540 868.7 540 914.3 540 937.2L540 960Z" fill="#beff8d"></path><path d="M432 960L429.3 937.2C426.7 914.3 421.3 868.7 421.3 823C421.3 777.3 426.7 731.7 427 686C427.3 640.3 422.7 594.7 422.7 548.8C422.7 503 427.3 457 423.3 411.2C419.3 365.3 406.7 319.7 407.7 274C408.7 228.3 423.3 182.7 424.8 137C426.3 91.3 414.7 45.7 408.8 22.8L403 0L540 0L540 22.8C540 45.7 540 91.3 540 137C540 182.7 540 228.3 540 274C540 319.7 540 365.3 540 411.2C540 457 540 503 540 548.8C540 594.7 540 640.3 540 686C540 731.7 540 777.3 540 823C540 868.7 540 914.3 540 937.2L540 960Z" fill="#b0fe76"></path><path d="M430 960L429.5 937.2C429 914.3 428 868.7 434.2 823C440.3 777.3 453.7 731.7 457.5 686C461.3 640.3 455.7 594.7 448.5 548.8C441.3 503 432.7 457 437.7 411.2C442.7 365.3 461.3 319.7 465.5 274C469.7 228.3 459.3 182.7 448.8 137C438.3 91.3 427.7 45.7 422.3 22.8L417 0L540 0L540 22.8C540 45.7 540 91.3 540 137C540 182.7 540 228.3 540 274C540 319.7 540 365.3 540 411.2C540 457 540 503 540 548.8C540 594.7 540 640.3 540 686C540 731.7 540 777.3 540 823C540 868.7 540 914.3 540 937.2L540 960Z" fill="#a1f267"></path><path d="M512 960L510.2 937.2C508.3 914.3 504.7 868.7 501.8 823C499 777.3 497 731.7 498.8 686C500.7 640.3 506.3 594.7 507.7 548.8C509 503 506 457 500 411.2C494 365.3 485 319.7 479.7 274C474.3 228.3 472.7 182.7 471.3 137C470 91.3 469 45.7 468.5 22.8L468 0L540 0L540 22.8C540 45.7 540 91.3 540 137C540 182.7 540 228.3 540 274C540 319.7 540 365.3 540 411.2C540 457 540 503 540 548.8C540 594.7 540 640.3 540 686C540 731.7 540 777.3 540 823C540 868.7 540 914.3 540 937.2L540 960Z" fill="#91e757"></path></svg>